<?plantuml 1.2026.2?><svg xmlns="http://www.w3.org/2000/svg" xmlns:xlink="http://www.w3.org/1999/xlink" contentStyleType="text/css" data-diagram-type="SEQUENCE" height="414px" preserveAspectRatio="none" style="width:667px;height:414px;background:#FFFFFF;" version="1.1" viewBox="0 0 667 414" width="667px" zoomAndPan="magnify"><defs/><g><rect fill="#C8C8FA" height="395.7715" style="stroke:#181818;stroke-width:0.5;" width="472.207" x="34.8335" y="6"/><text fill="#FFFFFF" font-family="sans-serif" font-size="13" font-weight="bold" lengthAdjust="spacing" textLength="35.585" x="251.0022" y="18.5684">Logic</text><rect fill="#F97181" height="395.7715" style="stroke:#181818;stroke-width:0.5;" width="92" x="569.9673" y="6"/><text fill="#FFFFFF" font-family="sans-serif" font-size="13" font-weight="bold" lengthAdjust="spacing" textLength="40.5615" x="593.5442" y="18.5684">Model</text><g><title>.LogicManager</title><rect fill="#FFFFFF" height="301.6621" style="stroke:#181818;stroke-width:1;" width="10" x="100.2881" y="88.1094"/></g><g><title>.DeliveryBookParser</title><rect fill="#FFFFFF" height="84.7988" style="stroke:#181818;stroke-width:1;" width="10" x="260.8408" y="117.4199"/></g><g><title>a.AddCommand</title><rect fill="#FFFFFF" height="31.4883" style="stroke:#181818;stroke-width:1;" width="10" x="426.4897" y="141.4199"/></g><g><title>a.AddCommand</title><rect fill="#FFFFFF" height="114.9316" style="stroke:#181818;stroke-width:1;" width="10" x="426.4897" y="231.5293"/></g><g><title>a.AddCommand</title><rect fill="#FFFFFF" height="48.3105" style="stroke:#181818;stroke-width:1;" width="10" x="431.4897" y="268.8398"/></g><g><title>.Model</title><rect fill="#FFFFFF" height="14" style="stroke:#181818;stroke-width:1;" width="10" x="610.9673" y="303.1504"/></g><g class="participant-lifeline" data-entity-uid="part1" data-qualified-name="LogicManager" id="part1-lifeline"><g><title>.LogicManager</title><rect fill="#000000" fill-opacity="0.00000" height="350.9727" width="8" x="101.2881" y="56.7988"/><line style="stroke:#181818;stroke-width:0.5;stroke-dasharray:5,5;" x1="104.8335" x2="104.8335" y1="56.7988" y2="407.7715"/></g></g><g class="participant-lifeline" data-entity-uid="part2" data-qualified-name="DeliveryBookParser" id="part2-lifeline"><g><title>.DeliveryBookParser</title><rect fill="#000000" fill-opacity="0.00000" height="350.9727" width="8" x="261.8408" y="56.7988"/><line style="stroke:#181818;stroke-width:0.5;stroke-dasharray:5,5;" x1="265.7427" x2="265.7427" y1="56.7988" y2="407.7715"/></g></g><g class="participant-lifeline" data-entity-uid="part3" data-qualified-name="AddCommand" id="part3-lifeline"><g><title>a.AddCommand</title><rect fill="#000000" fill-opacity="0.00000" height="251.6074" width="8" x="427.4897" y="156.1641"/><line style="stroke:#181818;stroke-width:0.5;stroke-dasharray:5,5;" x1="430.939" x2="430.939" y1="156.1641" y2="407.7715"/></g></g><g class="participant-lifeline" data-entity-uid="part4" data-qualified-name="Model" id="part4-lifeline"><g><title>.Model</title><rect fill="#000000" fill-opacity="0.00000" height="350.9727" width="8" x="611.9673" y="56.7988"/><line style="stroke:#181818;stroke-width:0.5;stroke-dasharray:5,5;" x1="615.9673" x2="615.9673" y1="56.7988" y2="407.7715"/></g></g><g class="participant participant-head" data-entity-uid="part1" data-qualified-name="LogicManager" id="part1-head"><rect fill="#3333C4" height="30.4883" rx="2.5" ry="2.5" style="stroke:#181818;stroke-width:0.5;" width="112.9092" x="48.8335" y="25.3105"/><text fill="#FFFFFF" font-family="sans-serif" font-size="14" lengthAdjust="spacing" textLength="98.9092" x="55.8335" y="45.8457">:LogicManager</text></g><g class="participant participant-head" data-entity-uid="part2" data-qualified-name="DeliveryBookParser" id="part2-head"><rect fill="#3333C4" height="30.4883" rx="2.5" ry="2.5" style="stroke:#181818;stroke-width:0.5;" width="148.1963" x="191.7427" y="25.3105"/><text fill="#FFFFFF" font-family="sans-serif" font-size="14" lengthAdjust="spacing" textLength="134.1963" x="198.7427" y="45.8457">:DeliveryBookParser</text></g><g class="participant participant-head" data-entity-uid="part4" data-qualified-name="Model" id="part4-head"><rect fill="#9D0012" height="30.4883" rx="2.5" ry="2.5" style="stroke:#181818;stroke-width:0.5;" width="64" x="583.9673" y="25.3105"/><text fill="#FFFFFF" font-family="sans-serif" font-size="14" lengthAdjust="spacing" textLength="45.7461" x="593.0942" y="45.8457">:Model</text></g><g><title>.LogicManager</title><rect fill="#FFFFFF" height="301.6621" style="stroke:#181818;stroke-width:1;" width="10" x="100.2881" y="88.1094"/></g><g><title>.DeliveryBookParser</title><rect fill="#FFFFFF" height="84.7988" style="stroke:#181818;stroke-width:1;" width="10" x="260.8408" y="117.4199"/></g><g><title>a.AddCommand</title><rect fill="#FFFFFF" height="31.4883" style="stroke:#181818;stroke-width:1;" width="10" x="426.4897" y="141.4199"/></g><g><title>a.AddCommand</title><rect fill="#FFFFFF" height="114.9316" style="stroke:#181818;stroke-width:1;" width="10" x="426.4897" y="231.5293"/></g><g><title>a.AddCommand</title><rect fill="#FFFFFF" height="48.3105" style="stroke:#181818;stroke-width:1;" width="10" x="431.4897" y="268.8398"/></g><g><title>.Model</title><rect fill="#FFFFFF" height="14" style="stroke:#181818;stroke-width:1;" width="10" x="610.9673" y="303.1504"/></g><g class="message" data-entity-1="part1" data-entity-2="part1" id="msg1"><polygon fill="#181818" points="88.2881,84.1094,98.2881,88.1094,88.2881,92.1094,92.2881,88.1094" style="stroke:#181818;stroke-width:1;"/><line style="stroke:#181818;stroke-width:1;" x1="0" x2="94.2881" y1="88.1094" y2="88.1094"/><text fill="#000000" font-family="sans-serif" font-size="13" lengthAdjust="spacing" textLength="81.2881" x="9.5" y="83.3672">execute(add)</text></g><g class="message" data-entity-1="part1" data-entity-2="part2" id="msg2"><polygon fill="#181818" points="248.8408,113.4199,258.8408,117.4199,248.8408,121.4199,252.8408,117.4199" style="stroke:#181818;stroke-width:1;"/><line style="stroke:#181818;stroke-width:1;" x1="110.2881" x2="254.8408" y1="117.4199" y2="117.4199"/><text fill="#000000" font-family="sans-serif" font-size="13" lengthAdjust="spacing" textLength="131.2314" x="119.9487" y="112.6777">parseCommand(add)</text></g><g class="message" data-entity-1="part2" data-entity-2="part3" id="msg3"><polygon fill="#181818" points="357.939,127.4199,367.939,131.4199,357.939,135.4199,361.939,131.4199" style="stroke:#181818;stroke-width:1;"/><line style="stroke:#181818;stroke-width:1;" x1="270.8408" x2="363.939" y1="131.4199" y2="131.4199"/></g><rect fill="#3333C4" height="30.4883" rx="2.5" ry="2.5" style="stroke:#181818;stroke-width:0.5;" width="123.1016" x="369.939" y="125.4199"/><text fill="#FFFFFF" font-family="sans-serif" font-size="14" lengthAdjust="spacing" textLength="109.1016" x="376.939" y="145.9551">a:AddCommand</text><g class="message" data-entity-1="part3" data-entity-2="part2" id="msg5"><polygon fill="#181818" points="281.8408,168.9082,271.8408,172.9082,281.8408,176.9082,277.8408,172.9082" style="stroke:#181818;stroke-width:1;"/><line style="stroke:#181818;stroke-width:1;stroke-dasharray:2,2;" x1="275.8408" x2="430.4897" y1="172.9082" y2="172.9082"/></g><g class="message" data-entity-1="part2" data-entity-2="part1" id="msg6"><polygon fill="#181818" points="121.2881,198.2188,111.2881,202.2188,121.2881,206.2188,117.2881,202.2188" style="stroke:#181818;stroke-width:1;"/><line style="stroke:#181818;stroke-width:1;stroke-dasharray:2,2;" x1="115.2881" x2="264.8408" y1="202.2188" y2="202.2188"/><text fill="#000000" font-family="sans-serif" font-size="13" lengthAdjust="spacing" textLength="7.1792" x="184.4749" y="197.4766">a</text></g><g class="message" data-entity-1="part1" data-entity-2="part3" id="msg7"><polygon fill="#181818" points="414.4897,227.5293,424.4897,231.5293,414.4897,235.5293,418.4897,231.5293" style="stroke:#181818;stroke-width:1;"/><line style="stroke:#181818;stroke-width:1;" x1="110.2881" x2="420.4897" y1="231.5293" y2="231.5293"/><text fill="#000000" font-family="sans-serif" font-size="13" lengthAdjust="spacing" textLength="57.7446" x="239.5166" y="226.7871">execute()</text></g><g class="message" data-entity-1="part3" data-entity-2="part3" id="msg8"><line style="stroke:#181818;stroke-width:1;" x1="436.4897" x2="483.4897" y1="255.8398" y2="255.8398"/><line style="stroke:#181818;stroke-width:1;" x1="483.4897" x2="483.4897" y1="255.8398" y2="268.8398"/><line style="stroke:#181818;stroke-width:1;" x1="442.4897" x2="483.4897" y1="268.8398" y2="268.8398"/><polygon fill="#181818" points="452.4897,264.8398,442.4897,268.8398,452.4897,272.8398,448.4897,268.8398" style="stroke:#181818;stroke-width:1;"/><text fill="#000000" font-family="sans-serif" font-size="13" lengthAdjust="spacing" textLength="150.4775" x="448.4897" y="251.0977">findMatchingCompany()</text></g><g class="message" data-entity-1="part3" data-entity-2="part4" id="msg9"><polygon fill="#181818" points="598.9673,299.1504,608.9673,303.1504,598.9673,307.1504,602.9673,303.1504" style="stroke:#181818;stroke-width:1;"/><line style="stroke:#181818;stroke-width:1;" x1="441.4897" x2="604.9673" y1="303.1504" y2="303.1504"/><text fill="#000000" font-family="sans-serif" font-size="13" lengthAdjust="spacing" textLength="92.5806" x="479.9382" y="298.4082">findCompany()</text></g><g class="message" data-entity-1="part4" data-entity-2="part3" id="msg10"><polygon fill="#181818" points="447.4897,313.1504,437.4897,317.1504,447.4897,321.1504,443.4897,317.1504" style="stroke:#181818;stroke-width:1;"/><line style="stroke:#181818;stroke-width:1;stroke-dasharray:2,2;" x1="441.4897" x2="614.9673" y1="317.1504" y2="317.1504"/></g><g class="message" data-entity-1="part3" data-entity-2="part1" id="msg11"><polygon fill="#181818" points="121.2881,342.4609,111.2881,346.4609,121.2881,350.4609,117.2881,346.4609" style="stroke:#181818;stroke-width:1;"/><line style="stroke:#181818;stroke-width:1;stroke-dasharray:2,2;" x1="115.2881" x2="430.4897" y1="346.4609" y2="346.4609"/><text fill="#000000" font-family="sans-serif" font-size="13" lengthAdjust="spacing" textLength="35.877" x="252.9504" y="341.7188">result</text></g><line style="stroke:#A80036;stroke-width:2;" x1="422.4897" x2="440.4897" y1="366.7715" y2="384.7715"/><line style="stroke:#A80036;stroke-width:2;" x1="422.4897" x2="440.4897" y1="384.7715" y2="366.7715"/><g class="message" data-entity-1="part1" data-entity-2="part1" id="msg13"><polygon fill="#181818" points="11,385.7715,1,389.7715,11,393.7715,7,389.7715" style="stroke:#181818;stroke-width:1;"/><line style="stroke:#181818;stroke-width:1;stroke-dasharray:2,2;" x1="5" x2="104.2881" y1="389.7715" y2="389.7715"/></g><?plantuml-src ZP9HJyCW58NV-HMu9_TG4ryROp8tDIPjQjItnIntSDt8A3IKplNVozfbeorLtyhbV0VEeLT2CLbnfAMj9TuKLIv9kHEg00CvdHcZlv-qik_7NLf848gGjJxGH6y4eqds_39VpRCaUrjzt187MS540ShIITn8Kb2mGJEXK59_uACzRe5IxD7K3rhlNi6K9teu7lU0UCRvNESvADx0bsK7GhTsQTf8gUOeQPej7fEnI8saCHo8prxBwBwRDAPuG5PPl0REfmIO5Nkms14Hqa6SHI1kJ8lZnob8psse9uGPF6vTmfE0gplB4vpzl1dnsek2LoCSWs3ek64zuEEX7FrklFjSoft-VVSU-IKKJy6ohL0RDtLlNF_FfNtyrY00Djk4jAgesw-Nj9MDDDUhlDUOmRAITeJrqULMS8xgynUBqXfTTyvUtaLHv-Vqpl7dFm00?></g></svg>
