<?plantuml 1.2026.2?><svg xmlns="http://www.w3.org/2000/svg" xmlns:xlink="http://www.w3.org/1999/xlink" contentStyleType="text/css" data-diagram-type="SEQUENCE" height="372px" preserveAspectRatio="none" style="width:720px;height:372px;background:#FFFFFF;" version="1.1" viewBox="0 0 720 372" width="720px" zoomAndPan="magnify"><defs/><g><rect fill="#C8C8FA" height="353.4609" style="stroke:#181818;stroke-width:0.5;" width="504.2329" x="51.2803" y="6"/><text fill="#FFFFFF" font-family="sans-serif" font-size="13" font-weight="bold" lengthAdjust="spacing" textLength="35.585" x="283.4619" y="18.5684">Logic</text><rect fill="#F97181" height="353.4609" style="stroke:#181818;stroke-width:0.5;" width="92" x="622.4268" y="6"/><text fill="#FFFFFF" font-family="sans-serif" font-size="13" font-weight="bold" lengthAdjust="spacing" textLength="40.5615" x="646.0037" y="18.5684">Model</text><g><title>.LogicManager</title><rect fill="#FFFFFF" height="259.3516" style="stroke:#181818;stroke-width:1;" width="10" x="116.7349" y="88.1094"/></g><g><title>.AddressBookParser</title><rect fill="#FFFFFF" height="84.7988" style="stroke:#181818;stroke-width:1;" width="10" x="293.4131" y="117.4199"/></g><g><title>s.SwitchCommand</title><rect fill="#FFFFFF" height="31.4883" style="stroke:#181818;stroke-width:1;" width="10" x="467.166" y="141.4199"/></g><g><title>s.SwitchCommand</title><rect fill="#FFFFFF" height="72.6211" style="stroke:#181818;stroke-width:1;" width="10" x="467.166" y="231.5293"/></g><g><title>.Model</title><rect fill="#FFFFFF" height="14" style="stroke:#181818;stroke-width:1;" width="10" x="663.4268" y="260.8398"/></g><g class="participant-lifeline" data-entity-uid="part1" data-qualified-name="LogicManager" id="part1-lifeline"><g><title>.LogicManager</title><rect fill="#000000" fill-opacity="0.00000" height="308.6621" width="8" x="117.7349" y="56.7988"/><line style="stroke:#181818;stroke-width:0.5;stroke-dasharray:5,5;" x1="121.2803" x2="121.2803" y1="56.7988" y2="365.4609"/></g></g><g class="participant-lifeline" data-entity-uid="part2" data-qualified-name="AddressBookParser" id="part2-lifeline"><g><title>.AddressBookParser</title><rect fill="#000000" fill-opacity="0.00000" height="308.6621" width="8" x="294.4131" y="56.7988"/><line style="stroke:#181818;stroke-width:0.5;stroke-dasharray:5,5;" x1="298.0073" x2="298.0073" y1="56.7988" y2="365.4609"/></g></g><g class="participant-lifeline" data-entity-uid="part3" data-qualified-name="SwitchCommand" id="part3-lifeline"><g><title>s.SwitchCommand</title><rect fill="#000000" fill-opacity="0.00000" height="209.2969" width="8" x="468.166" y="156.1641"/><line style="stroke:#181818;stroke-width:0.5;stroke-dasharray:5,5;" x1="471.8188" x2="471.8188" y1="156.1641" y2="365.4609"/></g></g><g class="participant-lifeline" data-entity-uid="part4" data-qualified-name="Model" id="part4-lifeline"><g><title>.Model</title><rect fill="#000000" fill-opacity="0.00000" height="308.6621" width="8" x="664.4268" y="56.7988"/><line style="stroke:#181818;stroke-width:0.5;stroke-dasharray:5,5;" x1="668.4268" x2="668.4268" y1="56.7988" y2="365.4609"/></g></g><g class="participant participant-head" data-entity-uid="part1" data-qualified-name="LogicManager" id="part1-head"><rect fill="#3333C4" height="30.4883" rx="2.5" ry="2.5" style="stroke:#181818;stroke-width:0.5;" width="112.9092" x="65.2803" y="25.3105"/><text fill="#FFFFFF" font-family="sans-serif" font-size="14" lengthAdjust="spacing" textLength="98.9092" x="72.2803" y="45.8457">:LogicManager</text></g><g class="participant participant-head" data-entity-uid="part2" data-qualified-name="AddressBookParser" id="part2-head"><rect fill="#3333C4" height="30.4883" rx="2.5" ry="2.5" style="stroke:#181818;stroke-width:0.5;" width="148.8115" x="224.0073" y="25.3105"/><text fill="#FFFFFF" font-family="sans-serif" font-size="14" lengthAdjust="spacing" textLength="134.8115" x="231.0073" y="45.8457">:AddressBookParser</text></g><g class="participant participant-head" data-entity-uid="part4" data-qualified-name="Model" id="part4-head"><rect fill="#9D0012" height="30.4883" rx="2.5" ry="2.5" style="stroke:#181818;stroke-width:0.5;" width="64" x="636.4268" y="25.3105"/><text fill="#FFFFFF" font-family="sans-serif" font-size="14" lengthAdjust="spacing" textLength="45.7461" x="645.5537" y="45.8457">:Model</text></g><g><title>.LogicManager</title><rect fill="#FFFFFF" height="259.3516" style="stroke:#181818;stroke-width:1;" width="10" x="116.7349" y="88.1094"/></g><g><title>.AddressBookParser</title><rect fill="#FFFFFF" height="84.7988" style="stroke:#181818;stroke-width:1;" width="10" x="293.4131" y="117.4199"/></g><g><title>s.SwitchCommand</title><rect fill="#FFFFFF" height="31.4883" style="stroke:#181818;stroke-width:1;" width="10" x="467.166" y="141.4199"/></g><g><title>s.SwitchCommand</title><rect fill="#FFFFFF" height="72.6211" style="stroke:#181818;stroke-width:1;" width="10" x="467.166" y="231.5293"/></g><g><title>.Model</title><rect fill="#FFFFFF" height="14" style="stroke:#181818;stroke-width:1;" width="10" x="663.4268" y="260.8398"/></g><g class="message" data-entity-1="part1" data-entity-2="part1" id="msg1"><polygon fill="#181818" points="104.7349,84.1094,114.7349,88.1094,104.7349,92.1094,108.7349,88.1094" style="stroke:#181818;stroke-width:1;"/><line style="stroke:#181818;stroke-width:1;" x1="0" x2="110.7349" y1="88.1094" y2="88.1094"/><text fill="#000000" font-family="sans-serif" font-size="13" lengthAdjust="spacing" textLength="97.7349" x="9.5" y="83.3672">execute(switch)</text></g><g class="message" data-entity-1="part1" data-entity-2="part2" id="msg2"><polygon fill="#181818" points="281.4131,113.4199,291.4131,117.4199,281.4131,121.4199,285.4131,117.4199" style="stroke:#181818;stroke-width:1;"/><line style="stroke:#181818;stroke-width:1;" x1="126.7349" x2="287.4131" y1="117.4199" y2="117.4199"/><text fill="#000000" font-family="sans-serif" font-size="13" lengthAdjust="spacing" textLength="147.6782" x="136.2349" y="112.6777">parseCommand(switch)</text></g><g class="message" data-entity-1="part2" data-entity-2="part3" id="msg3"><polygon fill="#181818" points="390.8188,127.4199,400.8188,131.4199,390.8188,135.4199,394.8188,131.4199" style="stroke:#181818;stroke-width:1;"/><line style="stroke:#181818;stroke-width:1;" x1="303.4131" x2="396.8188" y1="131.4199" y2="131.4199"/></g><rect fill="#3333C4" height="30.4883" rx="2.5" ry="2.5" style="stroke:#181818;stroke-width:0.5;" width="138.6943" x="402.8188" y="125.4199"/><text fill="#FFFFFF" font-family="sans-serif" font-size="14" lengthAdjust="spacing" textLength="124.6943" x="409.8188" y="145.9551">s:SwitchCommand</text><g class="message" data-entity-1="part3" data-entity-2="part2" id="msg5"><polygon fill="#181818" points="314.4131,168.9082,304.4131,172.9082,314.4131,176.9082,310.4131,172.9082" style="stroke:#181818;stroke-width:1;"/><line style="stroke:#181818;stroke-width:1;stroke-dasharray:2,2;" x1="308.4131" x2="471.166" y1="172.9082" y2="172.9082"/></g><g class="message" data-entity-1="part2" data-entity-2="part1" id="msg6"><polygon fill="#181818" points="137.7349,198.2188,127.7349,202.2188,137.7349,206.2188,133.7349,202.2188" style="stroke:#181818;stroke-width:1;"/><line style="stroke:#181818;stroke-width:1;stroke-dasharray:2,2;" x1="131.7349" x2="297.4131" y1="202.2188" y2="202.2188"/><text fill="#000000" font-family="sans-serif" font-size="13" lengthAdjust="spacing" textLength="6.627" x="209.2605" y="197.4766">s</text></g><g class="message" data-entity-1="part1" data-entity-2="part3" id="msg7"><polygon fill="#181818" points="455.166,227.5293,465.166,231.5293,455.166,235.5293,459.166,231.5293" style="stroke:#181818;stroke-width:1;"/><line style="stroke:#181818;stroke-width:1;" x1="126.7349" x2="461.166" y1="231.5293" y2="231.5293"/><text fill="#000000" font-family="sans-serif" font-size="13" lengthAdjust="spacing" textLength="57.7446" x="268.0781" y="226.7871">execute()</text></g><g class="message" data-entity-1="part3" data-entity-2="part4" id="msg8"><polygon fill="#181818" points="651.4268,256.8398,661.4268,260.8398,651.4268,264.8398,655.4268,260.8398" style="stroke:#181818;stroke-width:1;"/><line style="stroke:#181818;stroke-width:1;" x1="477.166" x2="657.4268" y1="260.8398" y2="260.8398"/><text fill="#000000" font-family="sans-serif" font-size="13" lengthAdjust="spacing" textLength="167.2607" x="486.666" y="256.0977">setCompanyPackage(false)</text></g><g class="message" data-entity-1="part4" data-entity-2="part3" id="msg9"><polygon fill="#181818" points="488.166,270.8398,478.166,274.8398,488.166,278.8398,484.166,274.8398" style="stroke:#181818;stroke-width:1;"/><line style="stroke:#181818;stroke-width:1;stroke-dasharray:2,2;" x1="482.166" x2="667.4268" y1="274.8398" y2="274.8398"/></g><g class="message" data-entity-1="part3" data-entity-2="part1" id="msg10"><polygon fill="#181818" points="137.7349,300.1504,127.7349,304.1504,137.7349,308.1504,133.7349,304.1504" style="stroke:#181818;stroke-width:1;"/><line style="stroke:#181818;stroke-width:1;stroke-dasharray:2,2;" x1="131.7349" x2="471.166" y1="304.1504" y2="304.1504"/><text fill="#000000" font-family="sans-serif" font-size="13" lengthAdjust="spacing" textLength="35.877" x="281.512" y="299.4082">result</text></g><line style="stroke:#A80036;stroke-width:2;" x1="463.166" x2="481.166" y1="324.4609" y2="342.4609"/><line style="stroke:#A80036;stroke-width:2;" x1="463.166" x2="481.166" y1="342.4609" y2="324.4609"/><g class="message" data-entity-1="part1" data-entity-2="part1" id="msg12"><polygon fill="#181818" points="11,343.4609,1,347.4609,11,351.4609,7,347.4609" style="stroke:#181818;stroke-width:1;"/><line style="stroke:#181818;stroke-width:1;stroke-dasharray:2,2;" x1="5" x2="120.7349" y1="347.4609" y2="347.4609"/></g><?plantuml-src ZLBBRi8m4BplLxYSu91AlKOL4gKFLGeAAhsX2hds5YmSExAT0dzV4o8QnqdLMpoUcTqPvqOe9YkEnBgJnDkoAYJOlL0bDRGWCsFquLahjphVab9IeG0-zP5aUYiOoVANr_bcdcVvs-Rz3hp82IPAgXmPfJLbGHNTeXaHQaaRQ4ixkXdd1grzq7g_fCOsuWWTTh3fwY0SsyrrKL35Qtc015BqPv_e4ckXEKgoo1-Vig5ODQNsZCXNhtKo3TEc18_8AeTZMoyo0SgS-AOE0nv0eF8kSUoKbEUF9ahi5oa0cC7pJT01nCv-N4YvUeOmX6KcVMi2no5rp-2uBjisw8dKxIbSwRVkoNz3J9ldzAFHUTI_zcb9sTuF67zHQR7bL3C1Be8aggsrUSEC2-l4zV4gwOPBwnYiTu9pL1z_65bdzAcRUNsV9C7_rXhOndy0?></g></svg>
